<svg width="34" height="34" viewBox="0 0 34 34" fill="none" xmlns="http://www.w3.org/2000/svg">
<circle cx="17" cy="17" r="17" fill="#4087FB"/>
<circle cx="17" cy="17" r="17" fill="#4087FB"/>
<path d="M25.3333 14.4428C25.3333 13.938 25.3333 13.6855 25.2335 13.5686C25.1469 13.4672 25.0169 13.4134 24.884 13.4239C24.7307 13.4359 24.5522 13.6144 24.1953 13.9714L21.1667 17L24.1953 20.0286C24.5522 20.3856 24.7307 20.5641 24.884 20.5761C25.0169 20.5866 25.1469 20.5328 25.2335 20.4313C25.3333 20.3145 25.3333 20.062 25.3333 19.5572V14.4428Z" fill="white"/>
<path d="M8.66666 15.1667C8.66666 13.7665 8.66666 13.0665 8.93914 12.5317C9.17882 12.0613 9.56128 11.6788 10.0317 11.4391C10.5665 11.1667 11.2665 11.1667 12.6667 11.1667H17.1667C18.5668 11.1667 19.2669 11.1667 19.8016 11.4391C20.272 11.6788 20.6545 12.0613 20.8942 12.5317C21.1667 13.0665 21.1667 13.7665 21.1667 15.1667V18.8333C21.1667 20.2335 21.1667 20.9335 20.8942 21.4683C20.6545 21.9387 20.272 22.3212 19.8016 22.5608C19.2669 22.8333 18.5668 22.8333 17.1667 22.8333H12.6667C11.2665 22.8333 10.5665 22.8333 10.0317 22.5608C9.56128 22.3212 9.17882 21.9387 8.93914 21.4683C8.66666 20.9335 8.66666 20.2335 8.66666 18.8333V15.1667Z" fill="white"/>
<path d="M25.3333 14.4428C25.3333 13.938 25.3333 13.6855 25.2335 13.5686C25.1469 13.4672 25.0169 13.4134 24.884 13.4239C24.7307 13.4359 24.5522 13.6144 24.1953 13.9714L21.1667 17L24.1953 20.0286C24.5522 20.3856 24.7307 20.5641 24.884 20.5761C25.0169 20.5866 25.1469 20.5328 25.2335 20.4313C25.3333 20.3145 25.3333 20.062 25.3333 19.5572V14.4428Z" stroke="white" stroke-width="1.58333" stroke-linecap="round" stroke-linejoin="round"/>
<path d="M8.66666 15.1667C8.66666 13.7665 8.66666 13.0665 8.93914 12.5317C9.17882 12.0613 9.56128 11.6788 10.0317 11.4391C10.5665 11.1667 11.2665 11.1667 12.6667 11.1667H17.1667C18.5668 11.1667 19.2669 11.1667 19.8016 11.4391C20.272 11.6788 20.6545 12.0613 20.8942 12.5317C21.1667 13.0665 21.1667 13.7665 21.1667 15.1667V18.8333C21.1667 20.2335 21.1667 20.9335 20.8942 21.4683C20.6545 21.9387 20.272 22.3212 19.8016 22.5608C19.2669 22.8333 18.5668 22.8333 17.1667 22.8333H12.6667C11.2665 22.8333 10.5665 22.8333 10.0317 22.5608C9.56128 22.3212 9.17882 21.9387 8.93914 21.4683C8.66666 20.9335 8.66666 20.2335 8.66666 18.8333V15.1667Z" stroke="white" stroke-width="1.58333" stroke-linecap="round" stroke-linejoin="round"/>
</svg>
