<svg width="36" height="36" viewBox="0 0 36 36" fill="none" xmlns="http://www.w3.org/2000/svg">
<circle cx="18" cy="18" r="18" fill="#FF008A"/>
<path d="M9.89997 18.8084C12.1091 18.2356 14.4818 18.3174 16.8545 19.2174C19.4727 20.1993 26.1818 21.5902 33.7091 14.7993L34.9363 13.572L35.0182 13.4902L35.3454 13.1629L35.1818 12.7538C35.1 12.4265 34.9363 12.0175 34.7727 11.6084L34.3636 10.4629L33.5454 11.2811C33.4636 11.4447 33.3 11.5265 33.1363 11.6902C29.5363 15.372 23.9727 19.1356 17.5909 16.8447C14.7272 15.7811 11.7818 15.6174 9.08179 16.3538C6.46361 17.0902 4.17269 18.4811 2.04542 20.4447V20.3629L0.818148 21.672C0.818148 21.7538 0.736345 21.7538 0.654527 21.8356L0.409058 22.0811L0.490881 22.4084C0.572699 22.8174 0.73633 23.2265 0.818148 23.6356L1.30906 24.9447L2.12724 23.8811C2.20906 23.7175 2.37269 23.6356 2.45451 23.472C4.17269 21.9175 6.54543 19.7084 9.89997 18.8084Z" fill="white"/>
<path d="M1.96366 17.3348C3.84547 15.3711 5.97273 14.1438 8.26364 13.4893C10.4727 12.9166 12.8455 12.9984 15.2182 13.8984C22.5818 16.5984 28.9637 12.1802 31.7455 9.80747L32.8091 8.74384L33.2182 8.41655L32.8909 7.92566C32.6455 7.6802 32.4818 7.35293 32.2364 7.02565L31.7455 6.37109L31.1727 6.94383C31.0909 7.02565 30.9273 7.18928 30.8455 7.2711C27.4091 10.5438 22.0909 13.8984 16.0364 11.6075C13.1727 10.5438 10.2273 10.3802 7.52728 11.1166C5.8091 11.6075 4.17273 12.4256 2.53637 13.4893L0.818182 14.8802C0.654545 15.0438 0.572727 15.1257 0.409091 15.2893L0.24547 15.4529V15.6984C0.163651 16.2711 0.163641 16.8438 0.0818232 17.3348L0 19.3802L1.39092 17.9075C1.55456 17.7438 1.7182 17.4984 1.96366 17.3348Z" fill="white"/>
<path d="M36.0001 16.2715L34.7728 17.4988C34.6091 17.6624 34.4455 17.826 34.2819 17.9897C30.9273 21.1806 25.5273 24.6169 19.4728 22.326C16.6092 21.2624 13.6637 21.0988 10.9637 21.8351C8.42735 22.5715 6.13642 23.8806 4.09097 25.8442L3.02734 26.9897L2.70007 27.3988L3.02734 27.8897C3.2728 28.2169 3.43644 28.4624 3.60008 28.7897L4.09097 29.526L4.6637 28.7897C4.74552 28.7079 4.90915 28.5442 4.99097 28.4624C6.95461 26.3351 9.08188 25.026 11.5364 24.3715C13.7455 23.7988 16.1182 23.8806 18.491 24.7806C20.5364 25.5169 22.6637 25.7624 24.791 25.517C28.5546 25.1079 32.3183 22.9806 35.1001 20.6079C35.2637 20.4442 35.4273 20.3624 35.591 20.1988L35.8364 19.9533V19.7079C35.8364 19.2169 35.9183 18.6442 35.9183 18.1533L36.0001 16.2715Z" fill="white"/>
</svg>
